# xmcd CD database file
#
# Track frame offsets:
#	150
#	14713
#	32432
#	48591
#	61485
#	78484
#	91060
#	107891
#	124728
#	147607
#	162775
#	194134
#
# Disc length: 3234 seconds
#
# Revision: 0
# Processed by: cddbd v1.5.2PL0 Copyright (c) Steve Scherf et al.
# Submitted via: CDex 1.51
#
DISCID=aa0ca00c
DTITLE=Wayne Gratz - Sleepy Baby Suite
DYEAR=1900
DGENRE=New Age
TTITLE0=Prelude
TTITLE1=Night Night Teddy
TTITLE2=Dreamy Rains
TTITLE3=Twinkles
TTITLE4=Wind Dreams
TTITLE5=Blanket Angels
TTITLE6=White Feathers
TTITLE7=Stars
TTITLE8=Snowflakes
TTITLE9=Imagination
TTITLE10=Fairy Nice
TTITLE11=Sleepy Baby
EXTD=
EXTT0=
EXTT1=
EXTT2=
EXTT3=
EXTT4=
EXTT5=
EXTT6=
EXTT7=
EXTT8=
EXTT9=
EXTT10=
EXTT11=
PLAYORDER=
